<svg version="1.2" baseProfile="tiny" xmlns="http://www.w3.org/2000/svg" viewBox="0 0 65 30"><path fill="#fff" d="M25.8 27c-7.5-.6-20.2-8.7-20.7-9-.4-.3-.8-.4-.8-.9s.3-.7.7-1c2.4-2.1 14.4-12.2 21.2-13 2.3-.3 5.7-.7 9.4-.4 2.9.2 12.5 1.9 17.8 5 6.1 3.6 7.5 5.5 7.7 5.7.4.6.6 1 .1 1.6-1.2 1.4-7.4 8.9-11.1 9.4-.8.1-2.2.1-3.9.4-5.3 1-14.3 2.8-19.7 2.7-.2 0-.4-.5-.7-.5zm-17.9-10.3c3.9 2.3 13.6 8 18.7 8.1 5.2.1 13.9-1.9 19.1-2.9 1.8-.3 3.2-.3 4-.5 1.7-.2 5.8-4.3 8.5-7.3-.9-.8-3-2.1-6.3-4-3.1-1.8-9.4-4-16.6-4.6-3.5-.3-6.8-.3-8.9-.1-4.3.7-13.2 7-18.5 11.3z"/><g fill="#fff"><path d="M33.3 17.1c-.2 0-2-.6-2.5-2.3 0-.2 0-.4.2-.6.4-.6 1.5-1.2 2.3-1.2.7 0 1.1.4 1.1 1.2 0 2.2-1 2.8-1.1 2.9zm0-3.8c-.7 0-1.6.5-2 1-.1.2-.1.3-.1.3.3 1.3 1.7 1.8 2 2 .2-.2.8-.8.8-2.5 0-.5-.2-.8-.7-.8zM33.5 18.7l-.7-.2c-.3-.1-2.8-.9-3.4-3.3-.1-.4-.2-1.1.5-1.9.7-.8 2.1-1.7 3.5-1.7 1.5 0 2.6 1.1 2.6 2.7 0 2.9-1.5 4-1.8 4.2l-.7.2z"/></g><path fill="#fff" d="M27.5 11.4c-.3 1.2 1.9.8 1.7.4-.1-.4-1.4-1.6-1.7-.4zM2.5 14.4c-.3 1.2 1.9.8 1.7.4-.1-.4-1.4-1.6-1.7-.4zM37 19.5c.3-.4.1-.8 0-.8s-1.1.2-1 .4c.1.2.1.4.3.4h.7zM5 19.5c.3-.4.1-.8 0-.8s-1.1.2-1 .4.1.4.3.4h.7zM28.2 18.4c0-.4.7-.4.7-.4s-.1 1.2-.4 1.1"/><path fill="#fff" d="M36.8 10.6c-.7 1.3 2.1.9 1.8 0s-1.5-.7-1.8 0zM32 10c0-1 1 0 1 0s-1 1-1 0zM27 16c0-1 1 0 1 0s-1 1-1 0zM32.6 20.6c-1 .6-2.7-.2-2.2-.6.5-.4.7-.8 1.1 0 .4.8 1.1.6 1.1.6zM37.2 16.2c1 .5.4-1.9 0-1.4s-.7 1.1 0 1.4zM2.2 18.2c1 .5.4-1.9 0-1.4s-.7 1.1 0 1.4zM63.4 16.9c.3-1.2-1.9-.8-1.7-.4.2.5 1.5 1.7 1.7.4zM61 10.9c-.3.4-.1.8 0 .8s1.1-.2 1-.4c-.1-.2-.1-.4-.3-.4h-.7zM63.7 13.1c-1-.5-.4 1.9 0 1.4s.8-1 0-1.4z"/></svg>